<svg width="16" height="16" viewBox="0 0 16 16" version="1.1" xmlns="http://www.w3.org/2000/svg" xmlns:xlink="http://www.w3.org/1999/xlink" xml:space="preserve" xmlns:serif="http://www.serif.com/" style="fill-rule:evenodd;clip-rule:evenodd;stroke-linejoin:round;stroke-miterlimit:2;"><g transform="matrix(0.8,0,0,0.8,-2.22045e-16,-0.0422124)"><path d="M15.989,19.129C15.989,16.883 13.802,15.74 11.672,14.822C9.549,13.908 8.871,13.138 8.871,11.488C8.871,10.499 9.519,10.821 9.803,9.007C9.923,8.255 10.495,8.995 10.605,7.278C10.605,6.594 10.292,6.424 10.292,6.424C10.292,6.424 10.451,5.411 10.513,4.631C10.577,3.814 10.115,2.071 8.212,1.536C7.88,1.195 7.655,0.654 8.679,0.112C6.439,0.008 5.918,1.18 4.725,2.042C3.71,2.798 3.436,3.995 3.485,4.632C3.55,5.412 3.708,6.425 3.708,6.425C3.708,6.425 3.394,6.595 3.394,7.279C3.504,8.997 4.078,8.256 4.197,9.008C4.481,10.822 5.13,10.5 5.13,11.489C5.13,13.139 4.918,13.699 2.794,14.613C0.663,15.53 0,17 0.011,19.129C0.014,19.766 0,20 0,20L16,20C16,20 15.989,19.766 15.989,19.129ZM18.528,13.365C17.393,12.908 16.923,12.363 16.923,11.299C16.923,10.658 17.341,10.867 17.525,9.696C17.602,9.212 17.972,9.688 18.043,8.581C18.043,8.14 17.841,8.03 17.841,8.03C17.841,8.03 17.944,7.374 17.984,6.871C18.034,6.244 17.62,4.624 15.716,4.624C13.813,4.624 13.398,6.244 13.447,6.871C13.489,7.373 13.591,8.03 13.591,8.03C13.591,8.03 13.389,8.139 13.389,8.581C13.46,9.688 13.83,9.212 13.907,9.696C14.091,10.868 14.509,10.659 14.509,11.299C14.509,12.363 14.071,12.861 12.7,13.451C12.631,13.48 12.58,13.519 12.517,13.553C14.157,14.265 16.743,15.494 17.355,18L20,18L20,15.682C20,14.682 19.727,13.848 18.528,13.365Z" style="fill:rgb(244,124,0);fill-rule:nonzero;"/></g></svg>